<mxfile host="Electron" modified="2023-07-07T11:01:16.681Z" agent="Mozilla/5.0 (Windows NT 10.0; Win64; x64) AppleWebKit/537.36 (KHTML, like Gecko) draw.io/21.5.0 Chrome/112.0.5615.204 Electron/24.5.1 Safari/537.36" etag="K06Id_QJxbqRHTeO7WJc" version="21.5.0" type="device">
  <diagram name="Page-1" id="d_nou-LBaRPFSB9i5oAc">
    <mxGraphModel dx="733" dy="578" grid="1" gridSize="10" guides="1" tooltips="1" connect="1" arrows="1" fold="1" page="1" pageScale="1" pageWidth="827" pageHeight="1169" math="0" shadow="0">
      <root>
        <mxCell id="0" />
        <mxCell id="1" parent="0" />
        <mxCell id="C50aEqYhrGDqNmGHAu31-49" value="" style="group;movable=1;resizable=1;rotatable=1;deletable=1;editable=1;locked=0;connectable=1;" parent="1" vertex="1" connectable="0">
          <mxGeometry x="30" y="280" width="960" height="330" as="geometry" />
        </mxCell>
        <mxCell id="C50aEqYhrGDqNmGHAu31-47" value="" style="rounded=1;whiteSpace=wrap;html=1;fillColor=none;strokeWidth=2;movable=1;resizable=1;rotatable=1;deletable=1;editable=1;locked=0;connectable=1;" parent="1" vertex="1">
          <mxGeometry x="30" y="280" width="960" height="330" as="geometry" />
        </mxCell>
        <mxCell id="C50aEqYhrGDqNmGHAu31-16" value="" style="verticalLabelPosition=bottom;html=1;verticalAlign=top;align=center;shape=mxgraph.azure.storage;pointerEvents=1;fillStyle=solid;strokeWidth=3;aspect=fixed;movable=1;resizable=1;rotatable=1;deletable=1;editable=1;locked=0;connectable=1;" parent="1" vertex="1">
          <mxGeometry x="581" y="473.5" width="120" height="104" as="geometry" />
        </mxCell>
        <mxCell id="C50aEqYhrGDqNmGHAu31-18" value="" style="sketch=0;html=1;aspect=fixed;shadow=0;verticalAlign=top;labelPosition=center;verticalLabelPosition=bottom;shape=mxgraph.gcp2.files;strokeWidth=3;movable=1;resizable=1;rotatable=1;deletable=1;editable=1;locked=0;connectable=1;" parent="1" vertex="1">
          <mxGeometry x="40" y="477" width="106.19" height="103" as="geometry" />
        </mxCell>
        <mxCell id="C50aEqYhrGDqNmGHAu31-20" value="" style="verticalLabelPosition=bottom;html=1;verticalAlign=top;align=center;shape=mxgraph.azure.automation;pointerEvents=1;aspect=fixed;strokeWidth=3;movable=1;resizable=1;rotatable=1;deletable=1;editable=1;locked=0;connectable=1;" parent="1" vertex="1">
          <mxGeometry x="170" y="315.2" width="111.11" height="100" as="geometry" />
        </mxCell>
        <mxCell id="C50aEqYhrGDqNmGHAu31-21" value="" style="sketch=0;outlineConnect=0;dashed=0;verticalLabelPosition=bottom;verticalAlign=top;align=center;html=1;fontSize=12;fontStyle=0;aspect=fixed;pointerEvents=1;shape=mxgraph.aws4.data_set;fillColor=#18141D;movable=1;resizable=1;rotatable=1;deletable=1;editable=1;locked=0;connectable=1;" parent="1" vertex="1">
          <mxGeometry x="310" y="470.3" width="89.18" height="110.41" as="geometry" />
        </mxCell>
        <mxCell id="C50aEqYhrGDqNmGHAu31-22" value="" style="sketch=0;html=1;aspect=fixed;shadow=0;verticalAlign=top;labelPosition=center;verticalLabelPosition=bottom;shape=mxgraph.gcp2.calculator;strokeWidth=3;movable=1;resizable=1;rotatable=1;deletable=1;editable=1;locked=0;connectable=1;" parent="1" vertex="1">
          <mxGeometry x="441" y="316.2" width="141.62" height="104.8" as="geometry" />
        </mxCell>
        <mxCell id="C50aEqYhrGDqNmGHAu31-23" value="" style="shape=image;verticalLabelPosition=bottom;labelBackgroundColor=default;verticalAlign=top;aspect=fixed;imageAspect=0;image=data:image/png,iVBORw0KGgoAAAANSUhEUgAAAgAAAAIACAYAAAD0eNT6AAAABHNCSVQICAgIfAhkiAAAAAlwSFlzAAAOxAAADsQBlSsOGwAAABl0RVh0U29mdHdhcmUAd3d3Lmlua3NjYXBlLm9yZ5vuPBoAACAASURBVHic7d13mCZVmbDxe2aYgRlyzqAEEQRFESUnCYIKqxJWxLAqrq45fOYVTGBcxbiCrCJmV0RFREFFRBRUkgpIBslB0gQYZrq/P8700gw90+9b59Q5Fe7fdZ0Ll6Xffk7V2/U8VXUCSJIkSZIkSZIkSZIkSZIkSZIkSZIkSZIkSZIkSZIkSZIkSZIkSZIkSZIkSZIkSZIkSZIkSZIkSZIkSZIkSZIkSZIkSZIkSZIkSZIkSZIkSZIkSZIkSZIkSZIkSZIkSZIkSZIkSZIkSZIkSZL6YkrpAFpoA2CLRW1VYEVgZWBqyaCklnoQuH9Ruw+4Abhi0T8l1cgCYHJrAQcBewF7AmuXDUfqhQeAy4DfAmct+ufcohFJHWMBMLGpwIHAK4BnA9PLhiP13kPAOcDJwCnAnLLhSO1nAfBo04DDgXcBWxWORdLEHgC+D3wOuLhwLFJrWQA84qnAF4EdSgciaWBnAe8Hfl86EKltLADC4/1jgbfgQD6prc4A3ghcVToQqS2mlQ6gsI2B04FDsBiS2mwz4NXAssD5wMNlw5Gar89Jb1vgZ8A6pQORlNRVwGHARaUDkZqsr08AdgN+DqxROhBJya0OvBy4B/hj2VCk5upjAbAd8AtgpdKBSKrNMsABwCbAacBI2XCk5unbK4DNgN8RFveR1A+nAYcC80oHIjVJnwqA5YA/AE8pHYik7H4LPIewhoAk+jXt7dOY/KW+2pUw6HfF0oFITdGXJwC7A7+mP/2VNLHzgP0Jmw9JvdaHhDiDsFzolqUDkdQIFgESYaRs172eepL/RcClwE3A7YTNSiTFO4Ywla8uOxEWANsfxwRInbUccAswmqjdBryNsIKgpHpcT7q/2aW1c3FMgNRZryHNheIh4GhghazRS/10PXkKAIsAqcMuJP4CcRewZ+7ApR67nnwFwChhbRAXBpM6ZGviLwy3ApvmDlzquevJWwD4JEDqmA8Td0GYB+yYPWpJ15O/ALAIkDrkD8RdDN6YP2RJlCsALAKkDliRsB941YvANYT1AyTldz3lCoBRHBMgtdoexF0ADs8esaQx11O2APBJgHqhq3sBPDHiZ+cBP0oViKRW2hk4A58EqMO6WgBsEfGzZwJzUgUiqbXGVgz0SYA6qasFwNoRP3tesigk5XYM4RF+KjvjLoLqqK4WADF/rLcki0JSbscDRwIjCT/T1wHqpK4WAMtH/OxtyaKQVMKJwGtJ+yTA1wHqnK4WADG7HD6YLApJpfgkQJpEVwsASToReDVpi4CdCGMCLALUehYAkrrMIkBaAgsASV1nESBNwAJAUh9YBEiLsQCQ1BcWAdI4FgCS+sQiQFrEAkBS31gESFgASOoniwD1ngWApL6yCFCvWQBI6jOLAPWWBYCkvrMIUC9ZAEiSRYB6yAJAkgKLAPWKBYAkPcIiQL1hASBJj2YRoF6wAJCkx7IIUOdZAEjSxCwC1GkWAJK0ZBYB6iwLAElaOosAdZIFgCRNziJAnWMBIEmDsQhQp1gASNLgLALUGRYAkjQciwB1ggWAJA3PIkCtZwEgqWlGI3425zXtROC1xMW7uJ2A04EVE36mNCELAElNMy/iZ9dIFsVgjgeOJO2TgJ2BM/BJgGpmASCpaR6I+Nn1kkUxOF8HqJUsACQ1zT0RP7tNsiiG4+sAtY4FgKSmuTriZw9KFsXwfB2gVrEAkNQ0V0T87HbAZqkCqcAnAVJh5xD+AKu0XQvEK+kRu1D973cU+Hb+kB9jbExATD8Wb78FZubshNRGFgBSe80AZlP9b3iEcNdcWh1FwKnAtJydkNrGAkBqtzOIS5Q3A+tnj/qx6igC/jtrD6SWsQCQ2u2VxCfKC4F1cgc+gTqKgLdn7YHUIhYAUrutBMwlPlHeCDwtc+wTSV0EzAeenrUHUktYAEjt91XSJcsvAGvlDf8xUhcBVwIrZO2B1AIWAFL7PRFYSLqEOQc4BXgZsCVlptWlLgK+nDd8dcmU0gHU5ByqJ/LdCNNtJJX3HeCwGj9/DuEJQU4rk24NlhHgGcCfE32e1Ho+AZC6YSPipgT2of2O7t7MqUauBCipyW4EPlw6iIbbCTikdBBqHwsASU33SeDc0kE03H/iUwANaZnSAaiyZYBtCdufLls4lrZ7GLgNuBh4sHAseqwFwIuAi4A1CsfSVFsD+wC/KB2IVFqXxwCsBnwCuJvy7x671h4gjKousae8JrcHMI/y35Omtp9XPrJSh3S1AHgKcAPlLzRdb3cRko2a5wWEJwKlvyNNbCOU3QlRLeMYgPbYmPB4b6PSgfTA6sBphFcsapZTgIPxVc1EplDvlEl1jAVAe3yJ8iuZ9cnywEn4N9JEpwLPAe4rHUgDHVo6ALWHF7d2eAqwf+kgeujJeNyb6lfAdrgAzuKeTFhBUZpUVwuAmDuDe5NFkc6BpQPoMY99c10D7AwcS5jJoeBZpQNQO3S1ALi24s8tIAyya5rNSwfQYx77ZnsIeA/hKdlZhWNpiiYPZFaDdLUAOK3iz50D3J8ykERmlA6gx5YrHYAGcjlhHvwuwM8Io+L7ygJAA+lqAXAWcGGFn/tY6kASubl0AD32j9IBaCi/Aw4ANgHeD1xWNpwi1gM2KB2EVNJTCTt9DTqH9n/KhDmQAyg/x7iv7cgBzo+abT3gxcBnCE8HriWM9Sn93aqz7ZnkyKnTur529D7A94BVJvnvvgW8gvA+sYmmE+5kXOQjr7sJx7yJA0OVxkrAtNJBLMGOwE8r/uy/A8cnjEVqpY2BkwkLhyxeJV8BHE47CqH9gYWUv7PoU3vFQGdGqseuVP/ufrxAvFJjrQjsC7wceCGwVdFoqnkdFgG52jEDnhOpLjEFwIkF4pVUs30JI55LJ8iuthtxOVU1Q0wB8P0C8apl3A64fX5B2Ppzd2AvYENgZtGI2u8h4BbCNNCzaO5YEGlQK5UOQJIkVRPzBOCcAvGqZbq6DoAkSVoKCwBJknrIAkCSpB6yAJAkqYcsACRJ6iELAEmSesgCQJKkHrIAkCSphywAJEnqIQsASZJ6yAJAkqQesgCQJKmHLAAkSeohCwBJknrIAkCSpB6yAJAkqYcsACRJ6iELAEmSemiZ0gFkMgt4DrA7sA4wB7gCOBW4vGBckiSpJi8DbgVGJ2gjwHeBNYtFJ0kT25WJr1uDtHMKxKuW6foTgI8B71jK/38KcCjwDGAv4LocQUmSVJNZwD7A0wk3t3cAfwLOAuYWjCurVzJcxXwpsGyRSCXpsXwCoGFMAd4A3MnE34k7gNct+u86bSWWfBCW1t5SIlhJmoAFgAY1A/g2g303vglMKxNmHi+j2h+NAwIlNYUFgAYxA/gRw30/PlYk0ky+RvU/nHXzhytJj2EBoMlUSf6jwAJgy66uA7BexM9ukCwKSZLqMQP4PnBghZ+dBry2qwXAcoV+VpKkusUk/zF7d7UAkCSpi1Ikf4CNLAAkSWqHGYTF62KTP8D8ri8EJElSF6S68x9ztU8AJElqttTJH+CnFgCSJDVXysf+Y2YDX7IAkCSpmcaS/78k/tw3Anc4BkCSpOap47E/wFHAVwF8AiBJUrPU8dgf4Gjgg2P/hwWAJEnNUddj/6OBD4z/FxYAkiQ1Q7bkDxYAkiQ1QdbkDxYAkiSVlj35gwWAJEklFUn+YAEgSVIpxZI/gOsAtNMKhC/MnsB6eB7VTqPA7cB5wA+AO8qGI2VVNPl32TmEi0uVtmuBeIfxUsJFs2r/bLYmttnA+/Cp5Hi7Uv14nlMgXg1uBvBD0v8dHTVMEP6xtcuHgZOAtUoHIiW2PPAh4HvAtMKxSHVqzJ2/BUB7HA68t3QQUs1eSM8fX6rTGpP8wQKgLWYCnygdhJTJ24HHlQ5CSqxRyR8sANriAMJgP6kPlgVeUjoIKaHGJX+wAGiL3UoHIGW2e+kApEQamfzBAqAt1i0dgJSZT7zUBY1N/mAB0BazSwcgZfZA6QCkSI1O/mAB0BZXlA5AyszvvNqs8ckfLADa4lTCIg9SX/ywdABSRa1I/mAB0BZXEr5QUh9cDPy4dBBSBa1J/mAB0CavB64pHYRUs9mE5a5HSgciDalVyR8sANrkbmBv4C+lA5FqciuwD37H1T6tS/5gAdA21wPbA2/FQVLqjpuBY4GtgD8UjkUaViuTP7iNbBs9BHx6UVsP2IiwPbDUNvOAWwiFrYNc1UatTf5gAdB2tyxqkqS8Wp38wVcAkiQNq/XJHywAJEkaRieSP1gASJI0qM4kf7AAkCRpEJ1K/mABIEnSZDqX/MECQJKkpelk8gcLAEmSlqSzyR8sACRJmkinkz+4EJAkSYubAXwPOCjx5x5NQ5I/+ARAkqTxepH8wQJAkqQxvUn+YAEgSRL0LPmDBYAkSb1L/uAgQElSv80Avg8cmPhzj6Zc8p9K2Cp+deAu4B/ASKFYsjuHsL94lbZrgXglaXG7Uv06dk6BeNtoBvAjqh/nJbWjcnZinHWB44DbF4vntkX/fp1CcWVlASCp7SwA6jUDOJXuJP/9gHsmie1+4HmF4svGAkBS21kA1Kdryf9g4OEBY5wP7FkmzDwsACS1nQVAPbr22P9QBk/+Y+1mYFaJYHOwAJDUdhYA6Zn8H2lvKhBvFhYAktrOAiAtk/+j29lOA2yvpwF7AevT4Uc56rSHCKOTzwN+CywsG446bGyef1em+h0MfJO4qfxPShRL43T5CcCOwAWkr2JttpLtGuAFaDyfAKThnf/EbV7uwHPpagHwEsJdU+mLtc1WV/swGmMBEM/kv+R2jUsBt8cewImEL7TUVe8FjiwdhDrBx/5Ld3aiz2mcrj0BmAb8lfJ3ZzZbjnYvYQnTvvMJQHXe+U/edvEJQDs8iw4P2JAWszLhdZdURdfW9j+UtHf+AN8BznUWQDvsXToAKbN9gM+UDqLFngpcBiwLTCEkj9uBOxa1vwEXLWr/LBRjHUz+k7uIRa/ZLADaYcPSAUiZbVQ6gJZbAdhysX+3pOvItcBphMR5Hu3dNc53/pO7BNgXmA1hy0A134LSAUiZPVw6gB7ZBHgjYS2GfxASXtvGYIwl/4MSf+7RlEv+3yZ98t+bsD0wYAHQFteUDkDKzO98GesRBrrdCHwRWLtsOAMZe+zfleR/KOmT/8WEsWR3TfYfdkHXZgFsT/mR2TZbzvZyFDMLIFWbTUiEM+vtamV93tVv0HYxsEbOTpTWtQIA4CzKXwxsthztemA5+m1l4CTKn4uxdg1hFdImcarf5O0i2vc6J1oXC4AtgHsofyGw2epsD+Osl+cR3sWXPhcTnZuPAtPr6/rAvPOfvPXuzn9MFwsAgJ0IU3lKXwhstjraXOBf6a8NgR9T/jxM1s4EVqrpGAzCO//JWy/v/Md0tQAAWBc4gXCxLH0hsNlStAWEu7mt6KepwKuB+yl/LgZtfwE2qONgTMI7/8nbwHf+U9L1o1HOoXoi340wHabplic8EViPsNiH1DYLCNsBnw/cXTiWUp5CKOi3Lx1IBdcT5pRflen3ucjP5C4mvELr698T0O0nAJLabyYh8bR9d89beeyCQ3Xwzj/hnX/XWQBIaqo9gL9TPnm3pQgw+Zv8h2IBIKlp1gROpnzCrqPdBGye7lD9Hwf8Td56PeBvIhYAkprkOcAtlE/UdbbUTwK885+8eec/AQsASU2wCvBlyifnthUBJn+Tf2UWAJJKK3HX/xfCYj0vJ1zLNgWeAGxHGB3+TsKmOXfVGEPs6wAf+0/efOy/FBYAkkpZCTiRfEn/XsI0tk2HiHEG4a70jJpiqloEmPxN/tEsACSVsD1wNXkS/1zgGGC1yJj3JDw5KF0EmPxN/klYAEjKaQrwdmA+eZL/GQx3xz+ZZQjrEowkjnPQIsDkb/JPxgJAUi5rAj8lT+K/FXhpjX05GJhTQ8xLGxjogL/JmwP+hmABIKluU4AXERJc3Yl/IfAFwqyCuu1M+n0JlvQkwDv/yZt3/kOyAJBUp72BP1F/4h8FLgF2yNOt/7MjcF+C2Me3xZ8EeOc/efPOvwILAEl1eCrwc/Ik/jnA20i7WcwwdqK+JwHe+Q+W/L3zr8ACQFJKjwe+QXgUnyP5/wbYLEvPlq6uIqCO6YcmfwEWAJLSWI2wsM488iT+OYTFeqbm6NyA6ngd0JXk72P/BrIAkBRjFiER30O+JNaUu/6JNLkIMPnrUSwAJFUxlTDN7mbyJbB7gVcTZhU0WROLAJO/HsMCQNKwng9cTt4EdiWwfo7OJVLHmIC2JX/f+TecBYCkQe1AePxeIomNAG+sv4tJNeFJQKnk751/C1gASJrMEwk745VMZBYBJn+Tf2IWAJKWZH3gy6S/mFsEmPxblfxLLTCheCsRluxcF89jH8whvJ++iHDx0PBWJCys8w5gZuFYFjcF+Myi//3ZkoEM4ffAswlz+lfK8PuOJmx7nNvBwLdJe529hLCa5F0JP1OLdPkJwIbA14AHKX/XYsvfbiCMGG/SPPGmm0E4ZrdT/vxN1nwSMHE7KltvHq2Td/5d19UCYFdCxVj6ImUr334CLI+WZipwCHAN5c/XMM0i4NHtqIz9GM/k31JdLAC2JMwXLn1xsjWn/YDmzx0v5QDgUsqfo6ptBHhD8qNSrzqmCN7HxLsI1s2pfi3WxQLgV5S/KNma1w5B421Pd/5WfBIQ2uK7CNbNO/+W61oB8EzKX4xszWwXIICNga8Tkmbuc7CQMJ3wScAvE3+2RUBouYoAk38HdK0A+ABlkout+W0EWJv+WoOwWU+pQbFnAtuOi2cWFgHQziLA5N8RXSsAvkGZi5utHW1H+md5wmY9pRajuQDYcwmxWQQEbSoCTP4d0rUC4NuUucjZ2tF2oT+mE6b03UqZY/13wriLyQZfWgQEbSgCTP4d07UC4GOUudjZ2tE2ovumEBLvVZQ5xncSnjjMGCJmi4CgyUWAyb+DulYAPIsyFz1b89vf6L6dgXMpc3xnE8YYVF3pziIgaGIRYPLvqK4VAFN5ZAlYm218ew3d9STKbdYzn7BfwDoJ+mEREDSpCDD5d1jXCgAIcc2nzMXQ1sx2HuGdeNdsSEi+C8h/TEcIRcdmiftkERA0oQgw+XdcFwsAgMNxDwBbaBeR5u60SVYjPG6fR5ljeiawXY39swgIShYBJv8e6GoBAGGls/Moc4G0lW/zgE/SrX0AZhEG2N1DmWP6V/KtqGgREJQoAkz+i+nqOuLnUD2R7wb8NmEsddmGMA95I8I2p+quEcJOdn8nbL16T9lwkpkKHAEcC6xX4PffCHwEOJGwml8uswibOe2V8DNHgTfTnq2EIRQBqbcSvo1wXC9f7N+7pW+PdPkJgNQFexMuoCXu+O8mPHFYrvZeLplPAoIcTwK88+8ZCwCpmXYAfkOZxD+HMMZgldp7ORiLgKDOIsDk30MWAFKzbAX8iDKJ/2HCrIISrxkmMwv4NemLALcSDq/NTP49ZAEgNcP6hOSb+kI8aDuTMF6myXwSENTxJMDk30MWAFJZKwBHA3Mpc7H+PWFAb1tYBARNLQJM/i1iASCVMYOwWc/tlLlQX06+KX2pWQQETSsCTP4tYwEg5TWVkHivocxF+iZC4ZFymlcJFgFBU4oAk38LWQBI+ewNXEiZC/T9hFcNM+vuZEYWAUHpIsDk31IWAFL9tid9ohq0PUQYXLhW7b0swyIgKFUEmPxbzAJAqs/GwNcJCSX3hXkhYbOex9fey/IsAoLcRYDJv+UsAKT01iAspFNqQ6ozgW1r72WzWAQEuYoAk38HWABI6SxPWDq31PvYCwj7XvSVRUBQdxFg8u8ICwAp3nTgdZSb0nclYWZBVzctG8Ys4FekLwJcMTC0SzH5d4YFgFTdFELivZIyif9OwhOHZevuaMv4JCCo40nAbYTlqtUBFgBSNTsB51Im8c8mjDFIuT1s11gEBBYBWiILAGk4WxFG15dI/PMJU/rWqb2X3WAREFgEaEIWANJgNiQk3wXkT/wjhKJjs9p72T0WAYFFgB7DAkBautUIj9vnkT/xjwJnAdvV3stuswgILAIqavu62UpjNWALYF3CnulrEbZxXZswMnYZwsVm2UVt1qKfu5fwxzKbsN3rbOBmwiCu2xa1W4GrgBsIi7iorFnAm4B3AKsU+P0XA+8Cfl7gd3fNXOB5wGmkmyY5BfgM4e/6c4k+s26/B/YHzgBWTPSZaxPWndiDcP1Si/gEYGIzCf17E/Al4Nfkm+L1IPAX4H+BY4CDgQ3q7a7GmQa8irBpTok7/uuAIwibBiktpwgGdUwRvBnYPGcnFM8CIFiXMJ3r08AfCIOtSlz8J/sDO4Uw7WsHQqJSWgcBl1Hm/N4JvAWn9NXNIiCwCFBvC4CphPeq7yRM5SqxVntsewD4CWFr143SHp7eeSZwNmXO4xzCGIMSrxn6yjEBgWMCeq5PBcAywHOAk4G7KJ/AU7cLCe+rN051wHpgS+BUypyvh4HjCWNJlJ9PAgKfBPRYHwqA7YHjKLdMa+42AvyOcCHq6hawsdYHTiAk4RLn6IeE4kNlWQQEFgE91dUCYCXC47jLKZ+QS7aHgG8Bu8Qdzs5YmTCwcg5lzsdvCRfbPlsO2I8ww+FYwkDbZ1Bu0KNFQGAR0ENdKwA2I9ztl9qNrcntEuA1wAqVj257LUsYYFfq1c/fgANr72WzLUMoyu9g4mN0OfDcQrFZBAQWAT3TlQLgGcCPCfPnSyfaprc7gffSj3XkpwIvAa6nzLG+CXglztjYhrBV8WTHawQ4ukyIFgGLWAT0SNsLgG0IS6S2cRR/6XY/YfT5akMf9XbYmzAwssSxfYCQyGbW3cmGmw68n/Aqapjj98oSweLsgDF1zA64CQcoN05bC4BtCAOpTPzx7T7C4/GuLDzzdNJfxAdtDwKfpLtF1TCeDPyJasfxXsodQ58EBHU8CbiMsGKqGqJtBcDqhJX5SmzI0vX2Q2DG4KeicTYDvkOZonAhcBLe4UAYb/ER4mdYvC134ONYBAR1FAG/xqX1G6MtBcAywOuBuyPitU3ePj/oCWmQtQhxl1q98XTC3a7Cgkp/I81xLb0HgkVAUEcR8NGsPdAStaEA2Bm4NCJO23AXqLbsPLcCcBThfXuJY3UB6TaWabuZhIt6yidzl2ftwcQsAoLURcAIsE/WHmhCTS4AZhLepzqyP287cZCTU9B04D8IS46WOD5XEvaNmFJ3R1tiJ+pZb+NvOTuxFBYBQeoi4Fpg+aw9iOA7i7x2AL4KPLF0IBO4i/DlvY4wvewmwquJuxa1+xb9d2Nb/0JY530K4a51eWBNYJ1FbW3C++stCGv6l04sTb2rnULYGfEjlJlSdDvwQR5ZQbDvViAsqvQ66hlAem0Nn1nFXML6BKm3Ej5u0f9uy1bC5wHPJt1Wwo8nzJT5fwk+SxU17QnAMoTVwZoyyO8m4LuENfb3I+waWKeZwLaEueufIzxmzv1ue2HNfaxiO8Je5iW+Aw8QXjX0cQGlJXkWIUHXedxfk603g/FJQJDyScCDOHC2qCYVAOsTlkotcZEfa7cTRnO/mOZ8MZcjjIP4AGGr4rqLo/l5ujWQVYD/psxroPmEwYXup/CIlQh3rnWfj9tJc5eZmkVAkLII+Grm2DVOUwqAfVjyEqF1t78DHyLMH2/DXPjVgcOA7xMeT6Y+Hpfk68pS7UR4zZL7+zBCmE64Wf1dbJUDgBup//gvBA7K1KcqLAKCVEXAw8AGmWPXIqULgKmE90C57/BuBT5GeNzeZisCRxDeT6ba2e4jWXswsXdSZqe+XxIKQT1iVcJTsRzHfz5wZJ5uRbEICHYizcZaTbjm9FLJAmAm4S4218V9hDCA5QWEkeRdsz5hkNotVD9Gs4ENcwc+znTCLIRc34mxdjFhgJMe7V+I+z4N0/5Ou3ZKtAgIDiZ+8a3bcaB9EaUKgLXIN6hrHnA8/dl/fTpwKGG8wLDH6t8LxDtmJmHxlxzfibF2PWHAZRte/eS0KvBl8pyDhYt+V2umhI1jERC8j/h+uy5AASUKgC2BayJ+76BtNmFGQZ8Hce3HYAMrF1B2Os6yhKczORLOKGG65lsW/V492iHkG4/zV8JOnm1mERAK6Kr7Poy147NHrewFwDOBf0b8zkHaPODT9DvxL25PwjiBxWcQjABnEtZdKGUacCr1fifG2hzC3PWVs/SsXZYFvkKe8zCfMPC2KwWYRUB4fRPzKuDG/CErZwGwK+nXlF78D+a7NGf6XhOtRXgqcAhhVHfd6xoM4hPUn3AeJizgs36mPrXRN8iT/C+lmwMtLQLgB8T19/H5Q+63XAXAswiP5Ou6qFwI7DJ071XaEdSfcE6lP+M/qvpX6j8PDxLeFXdxAO6YvhcBzyaur0fkD7nfchQA+1PPfPXRRZ/7DhxB2kabUm9ReC5hASVNLtUOfktq5wNPytabsvpcBEwD/kH1fh6bP+R+q7sA2J3wTr6Oi8pvcLGWtppKfas+XkazF5JpmidQX+KfSxhcOi1bb5qhz0XACVTv4w8LxNtrdRYA2wL3Rnz+ktp84N3076LSJa8n/ffiJuBV+L0Y1vOpJ/n/jmZu5pVLX4uAf6d6/y4qEG+v1VUAbEpYbS/1ReUqujmAqE9WJUzDS/WdeIiwWc+snJ3okMNJ+zc6G3gjrq0A/SwCtqd635wJkFkdBcA6wNURn7uk9mPC5jBqt0+R7jtxHv15t1yXPUl3Pn4JbJI3/MbrWxGwEdX7NbtAvL2WugBYlvQr/C0E3k/YQ1vtthbpxoR8Fu8yU5hJ/Hru9wFvwvOxJH0qAtaiep/mFYi311IXAKnXcZ9LWGta3XAUaS5878kdeMcdT/XzcQbhrk9L15ciYBWq92dOgXh7LWUB8IaIz5qo3UHZFeqUzjTgaYRNP2K/F3MIo4WPJoz2Xz1fNzprPeA2hjsP/wReXiDWNutDEfBEqvflngLx9lqqAmBP0m7fej1O8Wu7zQnr6aPupgAAH8dJREFU7f+Y8Ied8qI3vi0krC73ScK0U2cBVLMDg6/L8CNC0dBk6wBvJyyB/WfCuhBfAZ5L2deJXS8CnkP1flxZIN5eS1EArE2aO7vxXwIfKbbTOoR3wedTX8KfrN0JfIH2bzJTwhNY+hiefxBWDWyyKcA7Wfq4hj8DW5UKkG4XAW+heh/OKRBvr8UWAFOA0yM+Y/H2N5qxPr2G83TCPgyLbzZUul1KWBtgZn1d76QdgI8B/0vYovl4QuJfrmRQA5gGfJ3Bvhv3ETYnK6WrRcAvqB7/SQXi7bXYAuCNET+/eLuK5j9W1KPtS/qLWB3tTsLAwRXqOQxqgGnAtxjue3ELZceQdK0IWIWwUFvV2EtuSd5LMQXAf5BuStcNuItfm2xFGP1dOrEP2+4gPKLs8oY0fVQl+Y+1jxeId7wuFQFHVox3rO2XP+R+iykAHoj42fHtLsK7RzXfqsDnSTvgs0S7grBJldovJvmPEmY/lF6/oAtFwHTg2oh4HwZWyhiviCsAUrQHGW5bYZWzH2G9/dLJO2X7FrBGyoOkrGKT/1jbInfgE2h7EfDqyFjPzRSnxilZAIwAL6q/i4q0PPBFwvkqnbDraLcDz0t2tOrhKpiPlSr5jxKmjzZBW4uAlQnjKWLifG/NMWoCJQsA935uvicAl1M+SdfdRoBPAzPSHLZoyxEG2J7DI3Pz7yAsgPR8LAhSJv9R4Kl5w1+qNhYBn08Q36Y1xqclKFUA/AIXbGm6fQmrvZVOzjnbuYS1zEt6LmFXtKXF+RvCmgt9lDr5zyM85WqSNhUBzyAsxhUT23k1xKUBlCgAbsD3rk33Jpo3pz9Xux7YOvoIDm914OQh4ryG/v0dpU7+o4SnKk3UhiJgGeDCBHEdkTAmDSF3AbAA2C1Lz1TVBymfhEu3fwI7xR7IIbyQ4dfiHwV+kjHG0upI/gto1uP/xTW9CIhZ9W+s3YjTcovJXQB8JE+3VMEU4BOUT75NabOBfaKO6OTWAr4XGefONcfYBHUk/1HasfBMU4uADYH7E8Typsg4FCFnAfAnrPSa7LPkT7ILCI+yzyBc4L8MfIYwqOibwE8JjxjnFohtlLCe/B4Rx3RpDiesUBgb42driq8p6kr+n8jZiUhNLAJ+mCCGq2jOwNteylUAzAeekqlPGt57yPM9eBD4JfAuYDtg2QHjmwpsAvwLcBzw10zxjhIWvEq5sdB6hN30UsX3+4SxNY3J/xFNKgIOTPT7X1DhdyuhXAXAMbk6pKEdQb1z/B8mvKt+KWG+cCrrA28lzSCkydptwOMTxPxvpN8a+fIEcTWRyf+xmlAErEyaBcHOGLr3Si5HAXAVzd9FrK/2AB6invP+T8KOcjm2dt4a+J8a+zIKXEb1AmYj6ts7oYsrqJn8l6x0EfCVBL9vDuGJngrLUQAcmK03Gsa6VBt5PlmbDXyYtHf7g1of+BThVUMd3+VTGG4RninAawhbz9b19/WpIeJpA5P/5EoVAfuQ5mnhO6N6r2TqLgDOzNcVDWEa9Wzj+31CYVHaJoS97Ov4Tr99iBjq3ip5BHjaMAem4Uz+g8tdBKwAXJfgd1yKg8Ebo84CYAGwTb6uaAgfIO25vp0wQK9p9mHyVfWGbQ8B2y7ld04lTG2aTdrfO1H7TtUD00Am/+HlLAJil/sdJawYuEOy3itanQXAyRn7ocE9nbSr/J1DGNneVKsQphSm/G5fysQzGLYgvJOv629qfPsL3dk+1eRfXY4iYDfil/sdBb6QvPeKUlcB8DCwecZ+aDCplu4ca19c9Jlt8GrCdNRUfT9q3GdPA95BWFe+jr+nxdvphMKmC0z+8eosAmYCVyb4vJspMy5IS1FXAXBizk5oYG8j3cXhfZljT2Ev4G7SHIN5hPf8WwMXJPrMydq9wKvozm6AJv906ioC/pDosw6ur+uqqo4CYCHhUaiaZQPSvZd+S+bYU9oSuJU0x+EK6p16OL79lHAOu8Lkn14dRUCK1qc9K1qljgLgR1l7oEF9mTTnt413/ovbgnRFQN3tHsLriy6ZxnA7Hw7aujYlsopZwFmU/96OtTmkWURLNaijANg9aw80iM1I8/77hNyB12gbwiP10hfIpbVTgHXqOgCFeOdfvyY9CXhrzX1VhNQFwKV5w9eAvkH8uf0d3du447mkGd2cut0BHFZjv0vpevJ/AmFp7Tcu+mfJgdBNKAL+QDjnaqjUBUCqfaaVzibEJ7l/ElbZ66L3UT7hj2/fBtastcdl1JX8P5mzE0uwH0ueXXMB8KxCcZUsAuYRxtuowVIWAHOBVfOGrwF8nPhz+6/Zo85nCnA25RP/LTRzMaUUupz8P8Tky+OOAP9ZKL5SRcCgK2aqoJQFwDcyx67JzQTuIu68npI96vw2JxSwpZL/1+hu8dzl5P8Ghov5P8qEmb0I+B0++m+FlAXA8zLHrsm9nLhzOo/+jOB9F/kT/43A/jk6V0iXk//WDD8FdA7l9srIVQTMIYyFUAukKgDuYeKlUVXWL4k7r8fmD7mY5QiP4XMk/hHgeLqzlO9Eupz8l6H64k8fKhDvmBxFwJuz9UbRUhUAX8sctya3BmFJ5qrndPaiz+iTN5GnABgl3D3eBVwD/JkwDuEnwOcIj5b3IwzgbOOj1C4nfwjLPlftw58LxDtenUXAmYTNsNQSqQqAF+YOXJP6N+LOaR8XVZlJ2NkwVxEwaKFwKWHfhcNp/myMrif/LYjb8+Ge/CE/Rh1FwB00e1MwTSBFATAfN3loop9Q/ZwupD/v/hf3Gcon/cnaNYSnbgcTipam6Hryn0r8bo/3Zo96YimLgBHCmhpqmRQFwNm5g9aklgEeoPo5/WX+kBvj6ZRP8MO0BwjbHR9E2XE4XU/+kOYVUZMWS1uTuNeEY+2zuQNXGikKgC6sDd81TyXunL40f8iNsSLhcWbpxF6l3UsYXPik5Edl6fqQ/DclzWZaTVm1EMLaBLH9uYQwgFYtlKIA2CN30JrU66h+PhcAq+cPubj1gKNJt11w6XYuYWpu3VsH17Wxz3/VHPcwphAGuMX2aT5hYGcTrAncR1x/5gFPzh240oktAB4Gls8etSYTc0H+bYF4S9oM+Dqh8CmdtOtolxEGhNYxm6APd/4AryFNvz6eO/ClOI74/rw3e9RKKrYA+GP+kDWAi6h+To/OH24RGwJfIc070Da0S4FnJzlyQV+S/0bA/cT36+80Z8DmJgy/iNHi7WbCQEK1WGwB8N/5Q9YAYra5PaBAvDnNBN5J3CDJNrezCGNEYvThsf+YnxHfr4XArrkDX4pvE9+nI7NHreRiC4DX5Q9Zk1iNuHO6dv6QszkQuJ7ySbh0W0hYV2DFCsewL3f+EL+Wxlg7LnfgS/E0Jt+8aLJ2OWGmkVoutgDYJX/ImkTMNLb7CsSbwyrAlymfeJvWrme4rWr7dOe/LmEb7Ni+XQeskDn2pUkxmLGru1b2TmwB0NUdzNpsf6qfz0sKxFu35wK3UT7ZNrWNAF9g8iTVpzt/gB+T5tjulTvwpdiX+D6dR/0zS5RJTAHQhCUt9VgvoPo5Pa1AvHWZQbizjH3c2Zd2DUseG9C35P9i0vSvSWOkpgIXEt+nJo1lUKSYAuCiAvFqcjEXr28XiLcOG1F9t7Y+tznAixY7ln1L/msTNmmK7d+NNGu3x8OJ79OPs0etWsUUAKcUiFeTexXVz+lXCsSb2g7ArZRPpm1uXwam0693/mO+T5o+ppxyGWsGcDVx/VlA/hUmG6NLIx6nAI8DtiIMdKnqliTRKLWY7TgXJouijBcTiphSS5OOEAbW/Y2wAM/fgJsIgyvvXfTP+wlrD8wiLKK1ImEzrdWBJwBPJOw4twXhSUaJ962vJmwG9U/gsMSf/Sng7Yk/M5WDF7VYXwPOSPA5qbyWsJRxjJMI32e1zJbA64ETgfNJN//56Ix90OBiHvV9s0C8qbyV/O/7FwJ/Ao4Bdif9wihrAYcS3iX/PXPf6mhNfewPoQBLMVj0Fpo1OHol4E7i+jQX2CB34KpmbUIS+CrwD+r7Y35Drg5pKM+j+jlt6zu+D5EviT0MnEr4G1szR+fG2Qj4f8BfKsZesjU5+QN8gzT9PCh34JP4MPF9+mj2qDWU5YGXEOZ4LiTPH/ThWXqmYe1B9XN6dvZo4/0Xeb7vVwPvJu61WUpPBT5NmgFrdbemJ/+Yonl8+1buwCexLvE7GN5NWEdDDTMF2JPwvqnEsqZNq3QVxCwEdEOBeGPkuPP/NWGxnKbOfV6e8PrjFsol+KW1pif/VQjjNGL7eTuwRubYJ5Ni8au3ZY9aSzWV8F4wZsOXFG3/ujuqSjai+jldSHs2+HgH9X6/f8dwq+SVthxhsNcNlL0ujG9NT/4Qxkal6OuhuQOfxBbEb3R1A+UG1Gox0wlrUzdlMFCbLo59MpUwn7vqeX1K/pCHtj/1Dfi7lHYXt7MI731jd3uLbW1I/vuS5nv0g9yBD+AHxPfrZdmj1oQOo3mbmOxWZ4cV5WKqn9emr/M9nXr+Fh4CjiLMme6CLQg7/5W4NrQh+a9Imu/R3cA6eUOf1I7EFzaXEDelWAlsQ3gHWTrZT9T2rbHfivNdqp/Xpm/z+XzSf5fPB7bO2YmMXkbeMUJtSP4QdkNM0d+X5A58ALF7vIzS/W3BG21V4LPEv8Opsz2/tt4r1gepfl5fWCDeYXyWdN/hhcD7CCveddkTCa82TP7BHqR59N/EvTNSzGj4dfao9X/2Is2o1LrbEXUdAEV7DtXP6+MLxDuMFO82RwmbWfXpLmcmcAIm/1nEL4s7SljZcf3MsU9mGvBX4vo1Ajwjd+AK7zY/Sr55/LHt1fUcBiUwE7iD4c/pH0oEO6TvEf/dvYyw7G4fvY7015gmr+2/uE+Tps+vyh34AF5BfL++lz1qsRnt273sLbUcCaXyBoY7nyO0Y2ZH7Nz/X9CsXdpKOBR4kHTXgk/kDb+ynUhT/PyC5q0LMZP4lV/nA5vnDrzv9idsEFI6oQ/b3lfHwVAyU4D/ZfDzeXSRKIcXs9DRz3Be85hnke66s4DmPzZeDric+L4+QNhMrWlSrIvxxexR99xrafZAv6W1z9dwPJTWdOBzLH3A0zzgzaUCrKjK9LbTMfkv7pmkmyHwF5o9hfKjpOnn63IHPoDVCDs3xhY2TZvO2FlTCdtilkzgNxM3YOSnyY+K6vI0wuZQNxLO3cPAVYR3txsXjKuqzRluDfyfAssWibT59iM8+k1xTflA5tgH9XTS3GidTTPnxn+C7p67zlkWOIX8Cf8iwgphz+ORDU32i/i8y5IeFeUynea9v6xie0IRO9n39CRCn7Vkh5Pm3fg8mldQziDNFMg5hLFaTbMR4bjH9O12wsJIqtl04EfkSfgLCY9KXwtsuIR4toj4/Ll0I5GovdYEjmPix9gXAS8oF1rrvI00151v5g58Eh8gTb/emjvwAX2N+L69PnfQfbQM8H3qT/y3AccCmw4Q03LEVf7rVToSUlozCCO8X0gYVLtx2XBaK8UUyxHC05kmeAppXm+cRzMXi9qGMAAzpm9X0+yxG50wjVAZ15n4ryYs+zns486YRYd2HvJ3SWqulQhjQ2KvRb/JHfgElgH+THxf5gFbZo59UD8lvn+HZY+6h+pcges64JVUf8/524jf/cqKv1NSMz2NNGsE7JE57sW9hzTX13fnDnxAuxPftz/ia9zavYV6Ev+DhLnbsVObvh4RwwmRv1tS86S4ZpWcJbQVaYqYPxGeJDTNFMKqnbH9a8PCX622L/HvaCZqvyTdUqbvi4jj0kQxSGqOZQiDKGOuUSOEd9S5TSNNcnwIeHLm2Ad1MPH9OyN71D2zOfGLMyzeHiT9iM2YqYALcFlVqYtS7Cn/9exRp5vNcHTmuAc1Hfg7cX1bCGybO/A+WYEwTz5l8r8a2K6GWFcn7g/dx0hSN32FuGvWQ4SpmrlsTpieHHutvYTmjox/LfH9Ozl71D3zJdIm/9OAlWuM95qI2N5bY1ySylmD+P0C3pQp1qnAOZGxjhJWDKzjRiuFFYBbievfgzRzL4PO2Jf4R2fj2wnUPxDlOxHx/azm2CSV8zHirl8XZYrz9ZFxjrVjMsVbxfuJ71+btm5unZWBG0iX/D+aKe6Y92YP4jKSUletTVgGN+Y6Vvf75seRZlOjy2nuhlFrAvcR1797Ca98VZOvki75vz1j3LtFxnpIxlgl5XUccdeHT9UY2xSq7Q65eFtAGPjYVJ8lvo/vyR51j+xFuuT/ocyxzyCugv5G5ngl5bMBcbvpXVljbEdGxJWrSIm1KWFAZUz/bgZm5Q68L6YSFo1I8UX8QubYx8RsUnQPzR01KyneacRd1zavIab1CNee2GvutcDyNcSXSswYrbH2quxR98jLSJP8f065TSdeM2CMS2pOB5S66zDirg91zAY4PTKmUcKc+N1qiC2VbYnfqvkKmrmiYSfMBG4k/ot4FbBK5tjH23gJcQ3avpQ/ZEmZLEfc3fbPE8fz0ohYxrfPJ44rtRTjG/4le9Q98m7iT9ADwNa5A5/A36jeh/sI81QlddPxVL8+zCHdXei6pFll9Tqafc2KWaV1rP0ue9Q9Mgu4i/iT1JRd9T5JXD+OzB+ypEz2J+76kGo64A8j4xglrNWyT6J46jCV+P0YRoFdcgfeJ7HvzUcJj3iasiXjTsT1JdeiH5LyWwGYT/Xrw78niOFFEb9/fDs+QSx1egnxffxh9qh7ZArx6/3PBjbJHfgkriCuT9vnD1lSJudS/drwlcjfvQZwe8TvH2s3A6tGxlKnGcQtzz5KWNfgSbkD75PYx2GjwBuyRz25/ySuTyfmD1lSJh+k+rUhdvvwFNPhRoHnRMZRtzcT38fYYkuT+DlxJ+hKwtaOTfN44vYymENYPlRS9+xJ9WvDPMK77SqeH/F7x7cSWxQPY2XgTuL6OBdYP3fgfbIB8XMzD84e9eBid9X6dP6QJWWwOnHXhiqJaRXgpsjfO0rYSW+1Cr8/p2OI72eTNzTqhLcQd4LOpzkD/ybyKuL6Nw8rUKmrYu5Qqyy6c1LE7xvfXlDhd+e0HvEbL91F2fVkeuH3xJ2kg/KHPJSVCDtHxfSx1JLGkuoVMxDw5UP+rgMiftf49t0K/cwtZp2FsfbW7FH3zMbEvSO/lnLL/Q7jE8R9ER8ENsoetaS6nUj168JRQ/yelYF/RPyusXYnsFbFvubyROI2XBoFrqe52xm32viBK4cQ9/j+C4TxA013HOELWdWywPsSxSKpOa6O+Nlhpt99gjDeKtYbgTsSfE6djiF+pcT3E268VKOzqV6hzaXZ808XdzJxFekCYLvsUUuqU8wCaP8z4O/Ym7gnrWPt1JiOZhK7ANsocAnVZ1hoQDOIG6Txv/lDjrIN8X+Ef6IdrzwkDebF1HsNXJ7wlCE2Kd5LOwYjx4ypGGvPzh51D+1M3Ek6LH/I0X5B/Jezjq1AJZVxINWvBWcO8Pmfj/j88e1lsR3N4CDi+3l27qD7Zuyd/zuBj1b8jHmEBXIeSBJRPrsT/wV7ANiKMJdXUrvtCfyq4s/eDvxoKf//GYStfmMfZ88jvMKEMObqXsKOpfcs+t/XAH8FHor8PTGmEVZH3CriM0aBZwJ/TBKRluonVK/Sflwg3lRi+j3WTsketaQ6PIM0d+il28OEBHwy8Hpgw5QHaQCvjIh9rLVhemNn3E31E/X2AvGm8iTCgL7YL+u/5g5cUnK7UD5519FGgAuAdwGbJztaE5tJ/BTH+Rni1CJrEXeydsgfclInEP8H9gBhvquk9tqb8sk6RzsXeF6iY7a4dyeI73M1xaYJ7Ej1EzWPMC++zVIsUzkKXIyLVUhtlmLgWpvaBaRdRng1wliEmJgewE3XspkKbBbx8xdSdrBJCreQZpOfpwCfSfA5kspo+qp6qW0P/AD4JWmeYL6H+PX6P0UYUKlMPkD1am3QxS+abhZp5ueOAkdkjl1SGv9J+bvyUm0+YZXUFSoeu40Jq/XFxHAHsGLF368KYp8AXJsqkMLmAq8lfAljfRF4fILPkZRX1eTXBdMJSwtfQLWnAR8k/nXwB2jfdPLWO5vqFVvXRr9/lTTV9Bm5A5cU7VjK34k3od0HPH+I4/ZkwpoEMb/zKkIRosz+RPWT9swC8dZpNeBW0vwRbZ05dklxXkr55NuUNgJ8hME2iDs9we87dIDfoxpcTvWTtkWBeOv2QtL8AbV5fQSpj9YjvAsvnXyb1L7E0ouAPRL8jgsm+R2qUcyiDW3YkKKK7xH/pT4he9SSYp1E+aTbtPbfTJygpwDnJ/j8vZZ4NlS7mHmbsVM+mmpl4mcFfCV71JJirQbcSPmk27Q2URFwSILP/dlSz4Zq9zDVT94yBeLN5amEhY6qHpt35w9ZUgKbETbVKZ10m9beMe4YTQeujPy8hYT1U1RQTAHQ9ZXv/p3qx2b7AvFKSmMl4GPAPymfeJvSFhCWSwb4jwSf9/XBToXqMoWwDO6sij+/FnBnunAa6WSGX9znD4QlliW123TCLoGPA5YvG8qEViUsnrMZYf7+1oTteOtyN2Hg31nELdn7EGEQ+Q0JYlKEmDEAmxSIN7flCftrD3pM5uFjLUllrEzY0+BkYDb1PAlIsXfKp+o6ABpOzICXviS6dYHLGCz5H1AoRkkab0XgrcDNlHllsKR2D7B6jf3WEC6k+oncvUC8paxE2DRoSetdnwlsVSw6SZrYcsDRxA1qTtkcIN0gZ1L9RL6iQLylrQwcRtg45COEPQRS7KQlSXXagrBtecnkfxPVx5ypBl+n+sn8WIF4JUnVLEfcNT+2var+LmoYH6T6yTy1QLySpOqmAB8nf/K/jHpnKKiCV1D9hF5eIF5JUrxPkbcAODBPtzSMnal+Qh8mvBOXJLXLVOD75En+52bqk4a0EmHrx6on9nn5Q5YkJbACcAX1FwA75+qQhnct1U/sfxWIV5KUxo6EdfnrSv6OFWu4mMdAFxeIV5KUzgnUk/wXAFtm7IcqeDPVT/BCwkp5kqR2Wpd6Fgo6IWcnVM32xJ3kt+YPWZKU0OdJm/znAOtn7YEqmUbY5anqib4of8iSpIS2Im0B8JG84SvG94g72U/OH7IkKaE/kyb534VTxBtv6rj//bPIz3p55M9Lksr6caLP+QhwX6LPUgarseSd7gZp9wOrZo9akpTKrsTf/V8HLJs7cMX7AXEn/v35Q5YkJTKT+DUBXpI9aiXxfOJO/N3AitmjliSlcj3Vc8AlPPrVslpkBmHwRkwR8M7sUUuSUvk11a//Ly4QrypavFKbD3wn8jPfi3M/JamtHoj4WQf+tchEj2r+J/IzVyRsMylJap+5ET/r4/8WmehkXQicGfm5hwH7R36GJCm/WRE/OyVZFKrdkqq1Dyf47OMIW01KktpjpYifXZgsChV1DvHzQb+dPWpJUozrqX7N3y5/uKrDfsQXAKPAK3MHLkmqZBZx6wCslz9k1eUC4guAOcA2uQOXJA1tN6pf6xcQNpZTR+wEjBBfBFyHlaEkNd0HqH6dv6ZAvKrZV0jzKuBSYJXMsUuSBncR1a/xjvnqoNWBO0lTBPweWD5v+JKkATyJuOv7m/KHrByOJE0BMAr8HKcHSlLTfJG4a/uO+UNWDlMJd++pioDzgTWy9kCStCTrE7cd/N3A9OxRK5tNgXtJVwRcvegzJUllfZW463nsEvJqgUNIVwCMArcCe2btgSRpvF2In+313OxRq4gvkLYIWAC8HzeRkKTcVgGuJe4a/k9g2dyBq4xlgT+TtggYBc7CtQIkKZepwKnEX7s/mjtwlbUZ6aYGjm/3EaaSLJOvK5LUS58n/pr9EGEAoXrmmcBs0hcBo8DFhFUIJUlpTQH+izTX6q9njl0N8mxgPvUUASPAKbi7lCSlMouwYl+Ka/RDwOZ5w1fTvJg0+wUsrZ0O7JyrQ5LUQU8C/kq66/In84avpnoz9RYA418NvBVYJ0+3JKn1lgeOJdyxp7oW3w6snLMTarbXEKb05SgEFhCeCrwCeFyGvklS26wMvAu4g/TX4Bdn7Ida4oXELSdZtV1L2LXwJYQxA+41IKmP1iAs2PZdYB71XG+/ka03qtWUGj5zT8Lc0pVq+Oxh3AT8fdE/Zy9q9yz658MF45KkFKYTbnbWBB4PbAlsQb2Lql0HbAvcX+PvUCZ1FAAATwVOw4V9JKkr5gJ7AH8sHIcSqatSvAh4CvCzmj5fkpTPCHAEJv9OmVbjZ88FvkV47P6smn+XJKk+bwZOKh2E0qrrFcDidiUsPuGSkZLULu/G9f47Kddd+Y2EJSPXIrwayFV4SJKqGQFeB3ymdCCqR4lEvAvwRWCbAr9bkjS5B4FXEl7jqqNKvJe/ETiBsIf0TriPtCQ1yT+AA4AzSgeiepUamDcCnA+cTCgAnoxbAEtSaacD+wFXlw5E9WvKu/g1Ce+a3ozrS0tSbvcQlg0+gbDan3qgKVPz5gJnE758DxF2rZpVMiBJ6oFRwpPYA4HfFo5FmTXlCcDiphGWFH4pcDAws2w4ktQpo8BPgaOACwvHokKaWgCMtxpwGGGjn2dS7zrXktRlc4EfAJ8CLikciwprQwEw3lqEASr7AbsBG5YNR5IabyHwB8JaLN8F7isbjpqibQXA4jYEdiTsTrUNsPWif9eUsQ2SlNt84CrgXOAs4FeEadfSo7S9AJjIdGCjRW1tYPVFbWxQ4aqF4pKklOYDDxDu6O8DbgcuA64BFhSMS5IkSZIkSZIkSZIkSZIkSZIkSZIkSZIkSZIkSZIkSZIkSZIkSZIkSZIkSZIkSZIkSZIkSZIkSZIkSZIkSZIkSZIkSZIkSZIkSZIkSZIkSZIkSZIkSZIkSZIkSZIkSZIkSZIkSZIkSZIkSZIkNcz/B7SrUaVYMfKEAAAAAElFTkSuQmCC;movable=1;resizable=1;rotatable=1;deletable=1;editable=1;locked=0;connectable=1;" parent="1" vertex="1">
          <mxGeometry x="731" y="290" width="120" height="120" as="geometry" />
        </mxCell>
        <mxCell id="C50aEqYhrGDqNmGHAu31-24" value="" style="sketch=0;pointerEvents=1;shadow=0;dashed=0;html=1;strokeColor=none;fillColor=#18141D;aspect=fixed;labelPosition=center;verticalLabelPosition=bottom;verticalAlign=top;align=center;outlineConnect=0;shape=mxgraph.vvd.vrealize_log_insight;movable=1;resizable=1;rotatable=1;deletable=1;editable=1;locked=0;connectable=1;" parent="1" vertex="1">
          <mxGeometry x="858" y="467.5" width="110" height="110" as="geometry" />
        </mxCell>
        <mxCell id="C50aEqYhrGDqNmGHAu31-37" value="" style="shape=flexArrow;endArrow=classic;html=1;rounded=0;entryX=0.09;entryY=0.448;entryDx=0;entryDy=0;entryPerimeter=0;strokeWidth=2;movable=1;resizable=1;rotatable=1;deletable=1;editable=1;locked=0;connectable=1;labelPosition=center;verticalLabelPosition=top;align=center;verticalAlign=bottom;" parent="1" target="C50aEqYhrGDqNmGHAu31-20" edge="1">
          <mxGeometry width="50" height="50" relative="1" as="geometry">
            <mxPoint x="94" y="470" as="sourcePoint" />
            <mxPoint x="164" y="360" as="targetPoint" />
            <Array as="points">
              <mxPoint x="94" y="360" />
            </Array>
          </mxGeometry>
        </mxCell>
        <mxCell id="C50aEqYhrGDqNmGHAu31-38" value="" style="shape=flexArrow;endArrow=classic;html=1;rounded=0;strokeWidth=2;fillColor=default;movable=1;resizable=1;rotatable=1;deletable=1;editable=1;locked=0;connectable=1;" parent="1" edge="1">
          <mxGeometry width="50" height="50" relative="1" as="geometry">
            <mxPoint x="230" y="420" as="sourcePoint" />
            <mxPoint x="300" y="540" as="targetPoint" />
            <Array as="points">
              <mxPoint x="230" y="540" />
            </Array>
          </mxGeometry>
        </mxCell>
        <mxCell id="C50aEqYhrGDqNmGHAu31-39" value="" style="shape=flexArrow;endArrow=classic;html=1;rounded=0;exitX=0.372;exitY=-0.059;exitDx=0;exitDy=0;exitPerimeter=0;strokeWidth=2;fillColor=default;movable=1;resizable=1;rotatable=1;deletable=1;editable=1;locked=0;connectable=1;" parent="1" edge="1">
          <mxGeometry width="50" height="50" relative="1" as="geometry">
            <mxPoint x="349.2422609454545" y="463.78580999999997" as="sourcePoint" />
            <mxPoint x="426" y="360" as="targetPoint" />
            <Array as="points">
              <mxPoint x="350" y="360" />
            </Array>
          </mxGeometry>
        </mxCell>
        <mxCell id="C50aEqYhrGDqNmGHAu31-40" value="" style="shape=flexArrow;endArrow=classic;html=1;rounded=0;strokeWidth=2;fillColor=default;movable=1;resizable=1;rotatable=1;deletable=1;editable=1;locked=0;connectable=1;" parent="1" edge="1">
          <mxGeometry width="50" height="50" relative="1" as="geometry">
            <mxPoint x="641" y="464" as="sourcePoint" />
            <mxPoint x="730" y="360" as="targetPoint" />
            <Array as="points">
              <mxPoint x="641" y="360" />
            </Array>
          </mxGeometry>
        </mxCell>
        <mxCell id="C50aEqYhrGDqNmGHAu31-42" value="" style="shape=flexArrow;endArrow=classic;html=1;rounded=0;strokeWidth=2;fillColor=default;movable=1;resizable=1;rotatable=1;deletable=1;editable=1;locked=0;connectable=1;" parent="1" edge="1">
          <mxGeometry width="50" height="50" relative="1" as="geometry">
            <mxPoint x="476.81" y="421" as="sourcePoint" />
            <mxPoint x="570" y="540" as="targetPoint" />
            <Array as="points">
              <mxPoint x="477" y="540" />
            </Array>
          </mxGeometry>
        </mxCell>
        <mxCell id="C50aEqYhrGDqNmGHAu31-43" value="" style="shape=flexArrow;endArrow=classic;html=1;rounded=0;exitX=0.414;exitY=1.017;exitDx=0;exitDy=0;exitPerimeter=0;strokeWidth=2;fillColor=default;movable=1;resizable=1;rotatable=1;deletable=1;editable=1;locked=0;connectable=1;" parent="1" source="C50aEqYhrGDqNmGHAu31-23" edge="1">
          <mxGeometry width="50" height="50" relative="1" as="geometry">
            <mxPoint x="781" y="460" as="sourcePoint" />
            <mxPoint x="850" y="540" as="targetPoint" />
            <Array as="points">
              <mxPoint x="781" y="540" />
            </Array>
          </mxGeometry>
        </mxCell>
        <mxCell id="C50aEqYhrGDqNmGHAu31-51" value="1" style="ellipse;whiteSpace=wrap;html=1;aspect=fixed;strokeWidth=2;fontFamily=Tahoma;spacingBottom=4;spacingRight=2;strokeColor=#18141D;labelBorderColor=none;gradientColor=none;fontSize=18;fontStyle=1" parent="1" vertex="1">
          <mxGeometry x="71" y="320" width="30" height="30" as="geometry" />
        </mxCell>
        <mxCell id="C50aEqYhrGDqNmGHAu31-52" value="2" style="ellipse;whiteSpace=wrap;html=1;aspect=fixed;strokeWidth=2;fontFamily=Tahoma;spacingBottom=4;spacingRight=2;strokeColor=#18141D;fontStyle=1;fontSize=18;" parent="1" vertex="1">
          <mxGeometry x="207" y="550" width="30" height="30" as="geometry" />
        </mxCell>
        <mxCell id="C50aEqYhrGDqNmGHAu31-53" value="3" style="ellipse;whiteSpace=wrap;html=1;aspect=fixed;strokeWidth=2;fontFamily=Tahoma;spacingBottom=4;spacingRight=2;strokeColor=default;fontSize=18;fontStyle=1" parent="1" vertex="1">
          <mxGeometry x="329" y="319" width="30" height="30" as="geometry" />
        </mxCell>
        <mxCell id="C50aEqYhrGDqNmGHAu31-54" value="4" style="ellipse;whiteSpace=wrap;html=1;aspect=fixed;strokeWidth=2;fontFamily=Tahoma;spacingBottom=4;spacingRight=2;strokeColor=default;fontSize=18;fontStyle=1" parent="1" vertex="1">
          <mxGeometry x="457" y="550" width="30" height="30" as="geometry" />
        </mxCell>
        <mxCell id="C50aEqYhrGDqNmGHAu31-55" value="5" style="ellipse;whiteSpace=wrap;html=1;aspect=fixed;strokeWidth=2;fontFamily=Tahoma;spacingBottom=4;spacingRight=2;strokeColor=default;fontStyle=1;fontSize=18;" parent="1" vertex="1">
          <mxGeometry x="621" y="320" width="30" height="30" as="geometry" />
        </mxCell>
        <mxCell id="C50aEqYhrGDqNmGHAu31-56" value="6" style="ellipse;whiteSpace=wrap;html=1;aspect=fixed;strokeWidth=2;fontFamily=Tahoma;spacingBottom=4;spacingRight=2;strokeColor=default;fontSize=18;fontStyle=1" parent="1" vertex="1">
          <mxGeometry x="763" y="550.5" width="30" height="30" as="geometry" />
        </mxCell>
      </root>
    </mxGraphModel>
  </diagram>
</mxfile>
